<svg aria-roledescription="sequence" role="graphics-document document" viewBox="-50 -10 3216 2033" style="max-width: 3840px; background-color: white; max-height: 3840px;" xmlns:xlink="http://www.w3.org/1999/xlink" xmlns="http://www.w3.org/2000/svg" width="100%" id="my-svg"><g><rect class="rect" height="2012" width="400" stroke="rgb(0,0,0, 0.5)" fill="transparent" y="0" x="2716"/><text style="text-anchor: middle; font-size: 16px; font-weight: 400;" class="text" alignment-baseline="central" dominant-baseline="central" y="8.5" x="2916"><tspan dy="0" x="2916">C++</tspan></text></g><g><rect class="rect" height="2012" width="1095.5" stroke="rgb(0,0,0, 0.5)" fill="transparent" y="0" x="1507"/><text style="text-anchor: middle; font-size: 16px; font-weight: 400;" class="text" alignment-baseline="central" dominant-baseline="central" y="8.5" x="2054.75"><tspan dy="0" x="2054.75">Rust</tspan></text></g><g><rect class="rect" height="2012" width="1070" stroke="rgb(0,0,0, 0.5)" fill="transparent" y="0" x="0"/><text style="text-anchor: middle; font-size: 16px; font-weight: 400;" class="text" alignment-baseline="central" dominant-baseline="central" y="8.5" x="535"><tspan dy="0" x="535">Java</tspan></text></g><rect class="rect" height="732" width="2978" fill="rgb(191, 223, 255)" y="1185" x="69"/><rect class="rect" height="1073" width="2283" fill="rgb(171, 224, 128)" y="102" x="248"/><g><rect class="actor actor-bottom" ry="3" rx="3" name="uECpp" height="65" width="150" stroke="#666" fill="#eaeaea" y="1937" x="2961"/><text style="text-anchor: middle; font-size: 16px; font-weight: 400;" class="actor actor-box" alignment-baseline="central" dominant-baseline="central" y="1969.5" x="3036"><tspan dy="0" x="3036">uE Foo</tspan></text></g><g><rect class="actor actor-bottom" ry="3" rx="3" name="UTransport" height="65" width="150" stroke="#666" fill="#eaeaea" y="1937" x="2721"/><text style="text-anchor: middle; font-size: 16px; font-weight: 400;" class="actor actor-box" alignment-baseline="central" dominant-baseline="central" y="1969.5" x="2796"><tspan dy="0" x="2796">UTransport</tspan></text></g><g><rect class="actor actor-bottom" ry="3" rx="3" name="UPTransportZenoh" height="65" width="155" stroke="#666" fill="#eaeaea" y="1937" x="2442.5"/><text style="text-anchor: middle; font-size: 16px; font-weight: 400;" class="actor actor-box" alignment-baseline="central" dominant-baseline="central" y="1969.5" x="2520"><tspan dy="0" x="2520">UPTransportZenoh</tspan></text></g><g><rect class="actor actor-bottom" ry="3" rx="3" name="uStreamer" height="65" width="150" stroke="#666" fill="#eaeaea" y="1937" x="2242.5"/><text style="text-anchor: middle; font-size: 16px; font-weight: 400;" class="actor actor-box" alignment-baseline="central" dominant-baseline="central" y="1969.5" x="2317.5"><tspan dy="0" x="2317.5">uStreamer</tspan></text></g><g><rect class="actor actor-bottom" ry="3" rx="3" name="UPClientAndroid" height="65" width="150" stroke="#666" fill="#eaeaea" y="1937" x="1916"/><text style="text-anchor: middle; font-size: 16px; font-weight: 400;" class="actor actor-box" alignment-baseline="central" dominant-baseline="central" y="1969.5" x="1991"><tspan dy="0" x="1991">UPClientAndroid</tspan></text></g><g><rect class="actor actor-bottom" ry="3" rx="3" name="NativeBridgeRust" height="65" width="150" stroke="#666" fill="#eaeaea" y="1937" x="1512"/><text style="text-anchor: middle; font-size: 16px; font-weight: 400;" class="actor actor-box" alignment-baseline="central" dominant-baseline="central" y="1969.5" x="1587"><tspan dy="0" x="1587">NativeBridge</tspan></text></g><g><rect class="actor actor-bottom" ry="3" rx="3" name="NativeBridgeJava" height="65" width="150" stroke="#666" fill="#eaeaea" y="1937" x="915"/><text style="text-anchor: middle; font-size: 16px; font-weight: 400;" class="actor actor-box" alignment-baseline="central" dominant-baseline="central" y="1969.5" x="990"><tspan dy="0" x="990">NativeBridge</tspan></text></g><g><rect class="actor actor-bottom" ry="3" rx="3" name="UListenerNativeBridge" height="65" width="180" stroke="#666" fill="#eaeaea" y="1937" x="685"/><text style="text-anchor: middle; font-size: 16px; font-weight: 400;" class="actor actor-box" alignment-baseline="central" dominant-baseline="central" y="1969.5" x="775"><tspan dy="0" x="775">UListenerNativeBridge</tspan></text></g><g><rect class="actor actor-bottom" ry="3" rx="3" name="UPClient" height="65" width="150" stroke="#666" fill="#eaeaea" y="1937" x="485"/><text style="text-anchor: middle; font-size: 16px; font-weight: 400;" class="actor actor-box" alignment-baseline="central" dominant-baseline="central" y="1969.5" x="560"><tspan dy="0" x="560">UPClient</tspan></text></g><g><rect class="actor actor-bottom" ry="3" rx="3" name="UStreamerService" height="65" width="151" stroke="#666" fill="#eaeaea" y="1937" x="256.5"/><text style="text-anchor: middle; font-size: 16px; font-weight: 400;" class="actor actor-box" alignment-baseline="central" dominant-baseline="central" y="1969.5" x="332"><tspan dy="0" x="332">UStreamerService</tspan></text></g><g><rect class="actor actor-bottom" ry="3" rx="3" name="Java uE" height="65" width="150" stroke="#666" fill="#eaeaea" y="1937" x="5"/><text style="text-anchor: middle; font-size: 16px; font-weight: 400;" class="actor actor-box" alignment-baseline="central" dominant-baseline="central" y="1969.5" x="80"><tspan dy="0" x="80">ue Bar</tspan></text></g><g><line name="uECpp" stroke="#999" stroke-width="0.5px" class="actor-line 200" y2="1937" x2="3036" y1="27" x1="3036" data-id="uECpp" data-et="life-line" id="actor10"/><g data-id="uECpp" data-et="participant" id="root-10"><rect class="actor actor-top" ry="3" rx="3" name="uECpp" height="65" width="150" stroke="#666" fill="#eaeaea" y="27" x="2961"/><text style="text-anchor: middle; font-size: 16px; font-weight: 400;" class="actor actor-box" alignment-baseline="central" dominant-baseline="central" y="59.5" x="3036"><tspan dy="0" x="3036">uE Foo</tspan></text></g></g><g><line name="UTransport" stroke="#999" stroke-width="0.5px" class="actor-line 200" y2="1937" x2="2796" y1="27" x1="2796" data-id="UTransport" data-et="life-line" id="actor9"/><g data-id="UTransport" data-et="participant" id="root-9"><rect class="actor actor-top" ry="3" rx="3" name="UTransport" height="65" width="150" stroke="#666" fill="#eaeaea" y="27" x="2721"/><text style="text-anchor: middle; font-size: 16px; font-weight: 400;" class="actor actor-box" alignment-baseline="central" dominant-baseline="central" y="59.5" x="2796"><tspan dy="0" x="2796">UTransport</tspan></text></g></g><g><line name="UPTransportZenoh" stroke="#999" stroke-width="0.5px" class="actor-line 200" y2="1937" x2="2520" y1="27" x1="2520" data-id="UPTransportZenoh" data-et="life-line" id="actor8"/><g data-id="UPTransportZenoh" data-et="participant" id="root-8"><rect class="actor actor-top" ry="3" rx="3" name="UPTransportZenoh" height="65" width="155" stroke="#666" fill="#eaeaea" y="27" x="2442.5"/><text style="text-anchor: middle; font-size: 16px; font-weight: 400;" class="actor actor-box" alignment-baseline="central" dominant-baseline="central" y="59.5" x="2520"><tspan dy="0" x="2520">UPTransportZenoh</tspan></text></g></g><g><line name="uStreamer" stroke="#999" stroke-width="0.5px" class="actor-line 200" y2="1937" x2="2317.5" y1="27" x1="2317.5" data-id="uStreamer" data-et="life-line" id="actor7"/><g data-id="uStreamer" data-et="participant" id="root-7"><rect class="actor actor-top" ry="3" rx="3" name="uStreamer" height="65" width="150" stroke="#666" fill="#eaeaea" y="27" x="2242.5"/><text style="text-anchor: middle; font-size: 16px; font-weight: 400;" class="actor actor-box" alignment-baseline="central" dominant-baseline="central" y="59.5" x="2317.5"><tspan dy="0" x="2317.5">uStreamer</tspan></text></g></g><g><line name="UPClientAndroid" stroke="#999" stroke-width="0.5px" class="actor-line 200" y2="1937" x2="1991" y1="27" x1="1991" data-id="UPClientAndroid" data-et="life-line" id="actor6"/><g data-id="UPClientAndroid" data-et="participant" id="root-6"><rect class="actor actor-top" ry="3" rx="3" name="UPClientAndroid" height="65" width="150" stroke="#666" fill="#eaeaea" y="27" x="1916"/><text style="text-anchor: middle; font-size: 16px; font-weight: 400;" class="actor actor-box" alignment-baseline="central" dominant-baseline="central" y="59.5" x="1991"><tspan dy="0" x="1991">UPClientAndroid</tspan></text></g></g><g><line name="NativeBridgeRust" stroke="#999" stroke-width="0.5px" class="actor-line 200" y2="1937" x2="1587" y1="27" x1="1587" data-id="NativeBridgeRust" data-et="life-line" id="actor5"/><g data-id="NativeBridgeRust" data-et="participant" id="root-5"><rect class="actor actor-top" ry="3" rx="3" name="NativeBridgeRust" height="65" width="150" stroke="#666" fill="#eaeaea" y="27" x="1512"/><text style="text-anchor: middle; font-size: 16px; font-weight: 400;" class="actor actor-box" alignment-baseline="central" dominant-baseline="central" y="59.5" x="1587"><tspan dy="0" x="1587">NativeBridge</tspan></text></g></g><g><line name="NativeBridgeJava" stroke="#999" stroke-width="0.5px" class="actor-line 200" y2="1937" x2="990" y1="27" x1="990" data-id="NativeBridgeJava" data-et="life-line" id="actor4"/><g data-id="NativeBridgeJava" data-et="participant" id="root-4"><rect class="actor actor-top" ry="3" rx="3" name="NativeBridgeJava" height="65" width="150" stroke="#666" fill="#eaeaea" y="27" x="915"/><text style="text-anchor: middle; font-size: 16px; font-weight: 400;" class="actor actor-box" alignment-baseline="central" dominant-baseline="central" y="59.5" x="990"><tspan dy="0" x="990">NativeBridge</tspan></text></g></g><g><line name="UListenerNativeBridge" stroke="#999" stroke-width="0.5px" class="actor-line 200" y2="1937" x2="775" y1="27" x1="775" data-id="UListenerNativeBridge" data-et="life-line" id="actor3"/><g data-id="UListenerNativeBridge" data-et="participant" id="root-3"><rect class="actor actor-top" ry="3" rx="3" name="UListenerNativeBridge" height="65" width="180" stroke="#666" fill="#eaeaea" y="27" x="685"/><text style="text-anchor: middle; font-size: 16px; font-weight: 400;" class="actor actor-box" alignment-baseline="central" dominant-baseline="central" y="59.5" x="775"><tspan dy="0" x="775">UListenerNativeBridge</tspan></text></g></g><g><line name="UPClient" stroke="#999" stroke-width="0.5px" class="actor-line 200" y2="1937" x2="560" y1="27" x1="560" data-id="UPClient" data-et="life-line" id="actor2"/><g data-id="UPClient" data-et="participant" id="root-2"><rect class="actor actor-top" ry="3" rx="3" name="UPClient" height="65" width="150" stroke="#666" fill="#eaeaea" y="27" x="485"/><text style="text-anchor: middle; font-size: 16px; font-weight: 400;" class="actor actor-box" alignment-baseline="central" dominant-baseline="central" y="59.5" x="560"><tspan dy="0" x="560">UPClient</tspan></text></g></g><g><line name="UStreamerService" stroke="#999" stroke-width="0.5px" class="actor-line 200" y2="1937" x2="332" y1="27" x1="332" data-id="UStreamerService" data-et="life-line" id="actor1"/><g data-id="UStreamerService" data-et="participant" id="root-1"><rect class="actor actor-top" ry="3" rx="3" name="UStreamerService" height="65" width="151" stroke="#666" fill="#eaeaea" y="27" x="256.5"/><text style="text-anchor: middle; font-size: 16px; font-weight: 400;" class="actor actor-box" alignment-baseline="central" dominant-baseline="central" y="59.5" x="332"><tspan dy="0" x="332">UStreamerService</tspan></text></g></g><g><line name="Java uE" stroke="#999" stroke-width="0.5px" class="actor-line 200" y2="1937" x2="80" y1="27" x1="80" data-id="Java uE" data-et="life-line" id="actor0"/><g data-id="Java uE" data-et="participant" id="root-0"><rect class="actor actor-top" ry="3" rx="3" name="Java uE" height="65" width="150" stroke="#666" fill="#eaeaea" y="27" x="5"/><text style="text-anchor: middle; font-size: 16px; font-weight: 400;" class="actor actor-box" alignment-baseline="central" dominant-baseline="central" y="59.5" x="80"><tspan dy="0" x="80">ue Bar</tspan></text></g></g><style>#my-svg{font-family:"trebuchet ms",verdana,arial,sans-serif;font-size:10px;fill:#333;}#my-svg .error-icon{fill:#ffffff;}#my-svg .error-text{fill:#000000;stroke:#000000;}#my-svg .edge-thickness-normal{stroke-width:1px;}#my-svg .edge-thickness-thick{stroke-width:3.5px;}#my-svg .edge-pattern-solid{stroke-dasharray:0;}#my-svg .edge-thickness-invisible{stroke-width:0;fill:none;}#my-svg .edge-pattern-dashed{stroke-dasharray:3;}#my-svg .edge-pattern-dotted{stroke-dasharray:2;}#my-svg .marker{fill:#000000;stroke:#000000;}#my-svg .marker.cross{stroke:#000000;}#my-svg svg{font-family:"trebuchet ms",verdana,arial,sans-serif;font-size:10px;}#my-svg .actor{stroke:hsl(0, 0%, 70%);fill:#ffffff;}#my-svg text.actor&gt;tspan{fill:#333;stroke:none;}#my-svg .actor-line{stroke:hsl(0, 0%, 70%);}#my-svg .messageLine0{stroke-width:1.5;stroke-dasharray:none;stroke:#333;}#my-svg .messageLine1{stroke-width:1.5;stroke-dasharray:2,2;stroke:#333;}#my-svg #arrowhead path{fill:#333;stroke:#333;}#my-svg .sequenceNumber{fill:#ffffff;}#my-svg #sequencenumber{fill:#333;}#my-svg #crosshead path{fill:#333;stroke:#333;}#my-svg .messageText{fill:#333;stroke:none;}#my-svg .labelBox{stroke:hsl(0, 0%, 70%);fill:#ffffff;}#my-svg .labelText,#my-svg .labelText&gt;tspan{fill:#333;stroke:none;}#my-svg .loopText,#my-svg .loopText&gt;tspan{fill:#333;stroke:none;}#my-svg .loopLine{stroke-width:2px;stroke-dasharray:2,2;stroke:hsl(0, 0%, 70%);fill:hsl(0, 0%, 70%);}#my-svg .note{stroke:hsl(52.6829268293, 60%, 73.9215686275%);fill:#fff5ad;}#my-svg .noteText,#my-svg .noteText&gt;tspan{fill:#333;stroke:none;}#my-svg .activation0{fill:hsl(-120, 0%, 80%);stroke:hsl(-120, 0%, 70%);}#my-svg .activation1{fill:hsl(-120, 0%, 80%);stroke:hsl(-120, 0%, 70%);}#my-svg .activation2{fill:hsl(-120, 0%, 80%);stroke:hsl(-120, 0%, 70%);}#my-svg .actorPopupMenu{position:absolute;}#my-svg .actorPopupMenuPanel{position:absolute;fill:#ffffff;box-shadow:0px 8px 16px 0px rgba(0,0,0,0.2);filter:drop-shadow(3px 5px 2px rgb(0 0 0 / 0.4));}#my-svg .actor-man line{stroke:hsl(0, 0%, 70%);fill:#ffffff;}#my-svg .actor-man circle,#my-svg line{stroke:hsl(0, 0%, 70%);fill:#ffffff;stroke-width:2px;}#my-svg .node .neo-node{stroke:#000000;}#my-svg [data-look="neo"].node rect,#my-svg [data-look="neo"].cluster rect,#my-svg [data-look="neo"].node polygon{stroke:url(#my-svg-gradient);filter:drop-shadow( 0px 1px 2px rgba(0, 0, 0, 0.25));}#my-svg [data-look="neo"].node rect,#my-svg [data-look="neo"].node polygon,#my-svg [data-look="neo"].node path{stroke:url(#my-svg-gradient);filter:drop-shadow( 0px 1px 2px rgba(0, 0, 0, 0.25));}#my-svg [data-look="neo"].node .neo-line path{stroke:hsl(0, 0%, 70%);filter:none;}#my-svg [data-look="neo"].node circle{stroke:url(#my-svg-gradient);filter:drop-shadow( 0px 1px 2px rgba(0, 0, 0, 0.25));}#my-svg [data-look="neo"].node circle .state-start{fill:#000000;}#my-svg [data-look="neo"].statediagram-cluster rect{fill:#ffffff;stroke:url(#my-svg-gradient);stroke-width:1px;}#my-svg :root{--mermaid-font-family:"trebuchet ms",verdana,arial,sans-serif;}</style><g/><defs><symbol height="24" width="24" id="computer"><path d="M2 2v13h20v-13h-20zm18 11h-16v-9h16v9zm-10.228 6l.466-1h3.524l.467 1h-4.457zm14.228 3h-24l2-6h2.104l-1.33 4h18.45l-1.297-4h2.073l2 6zm-5-10h-14v-7h14v7z" transform="scale(.5)"/></symbol></defs><defs><symbol clip-rule="evenodd" fill-rule="evenodd" id="database"><path d="M12.258.001l.256.004.255.005.253.008.251.01.249.012.247.015.246.016.242.019.241.02.239.023.236.024.233.027.231.028.229.031.225.032.223.034.22.036.217.038.214.04.211.041.208.043.205.045.201.046.198.048.194.05.191.051.187.053.183.054.18.056.175.057.172.059.168.06.163.061.16.063.155.064.15.066.074.033.073.033.071.034.07.034.069.035.068.035.067.035.066.035.064.036.064.036.062.036.06.036.06.037.058.037.058.037.055.038.055.038.053.038.052.038.051.039.05.039.048.039.047.039.045.04.044.04.043.04.041.04.04.041.039.041.037.041.036.041.034.041.033.042.032.042.03.042.029.042.027.042.026.043.024.043.023.043.021.043.02.043.018.044.017.043.015.044.013.044.012.044.011.045.009.044.007.045.006.045.004.045.002.045.001.045v17l-.001.045-.002.045-.004.045-.006.045-.007.045-.009.044-.011.045-.012.044-.013.044-.015.044-.017.043-.018.044-.02.043-.021.043-.023.043-.024.043-.026.043-.027.042-.029.042-.03.042-.032.042-.033.042-.034.041-.036.041-.037.041-.039.041-.04.041-.041.04-.043.04-.044.04-.045.04-.047.039-.048.039-.05.039-.051.039-.052.038-.053.038-.055.038-.055.038-.058.037-.058.037-.06.037-.06.036-.062.036-.064.036-.064.036-.066.035-.067.035-.068.035-.069.035-.07.034-.071.034-.073.033-.074.033-.15.066-.155.064-.16.063-.163.061-.168.06-.172.059-.175.057-.18.056-.183.054-.187.053-.191.051-.194.05-.198.048-.201.046-.205.045-.208.043-.211.041-.214.04-.217.038-.22.036-.223.034-.225.032-.229.031-.231.028-.233.027-.236.024-.239.023-.241.02-.242.019-.246.016-.247.015-.249.012-.251.01-.253.008-.255.005-.256.004-.258.001-.258-.001-.256-.004-.255-.005-.253-.008-.251-.01-.249-.012-.247-.015-.245-.016-.243-.019-.241-.02-.238-.023-.236-.024-.234-.027-.231-.028-.228-.031-.226-.032-.223-.034-.22-.036-.217-.038-.214-.04-.211-.041-.208-.043-.204-.045-.201-.046-.198-.048-.195-.05-.19-.051-.187-.053-.184-.054-.179-.056-.176-.057-.172-.059-.167-.06-.164-.061-.159-.063-.155-.064-.151-.066-.074-.033-.072-.033-.072-.034-.07-.034-.069-.035-.068-.035-.067-.035-.066-.035-.064-.036-.063-.036-.062-.036-.061-.036-.06-.037-.058-.037-.057-.037-.056-.038-.055-.038-.053-.038-.052-.038-.051-.039-.049-.039-.049-.039-.046-.039-.046-.04-.044-.04-.043-.04-.041-.04-.04-.041-.039-.041-.037-.041-.036-.041-.034-.041-.033-.042-.032-.042-.03-.042-.029-.042-.027-.042-.026-.043-.024-.043-.023-.043-.021-.043-.02-.043-.018-.044-.017-.043-.015-.044-.013-.044-.012-.044-.011-.045-.009-.044-.007-.045-.006-.045-.004-.045-.002-.045-.001-.045v-17l.001-.045.002-.045.004-.045.006-.045.007-.045.009-.044.011-.045.012-.044.013-.044.015-.044.017-.043.018-.044.02-.043.021-.043.023-.043.024-.043.026-.043.027-.042.029-.042.03-.042.032-.042.033-.042.034-.041.036-.041.037-.041.039-.041.04-.041.041-.04.043-.04.044-.04.046-.04.046-.039.049-.039.049-.039.051-.039.052-.038.053-.038.055-.038.056-.038.057-.037.058-.037.06-.037.061-.036.062-.036.063-.036.064-.036.066-.035.067-.035.068-.035.069-.035.07-.034.072-.034.072-.033.074-.033.151-.066.155-.064.159-.063.164-.061.167-.06.172-.059.176-.057.179-.056.184-.054.187-.053.19-.051.195-.05.198-.048.201-.046.204-.045.208-.043.211-.041.214-.04.217-.038.22-.036.223-.034.226-.032.228-.031.231-.028.234-.027.236-.024.238-.023.241-.02.243-.019.245-.016.247-.015.249-.012.251-.01.253-.008.255-.005.256-.004.258-.001.258.001zm-9.258 20.499v.01l.001.021.003.021.004.022.005.021.006.022.007.022.009.023.01.022.011.023.012.023.013.023.015.023.016.024.017.023.018.024.019.024.021.024.022.025.023.024.024.025.052.049.056.05.061.051.066.051.07.051.075.051.079.052.084.052.088.052.092.052.097.052.102.051.105.052.11.052.114.051.119.051.123.051.127.05.131.05.135.05.139.048.144.049.147.047.152.047.155.047.16.045.163.045.167.043.171.043.176.041.178.041.183.039.187.039.19.037.194.035.197.035.202.033.204.031.209.03.212.029.216.027.219.025.222.024.226.021.23.02.233.018.236.016.24.015.243.012.246.01.249.008.253.005.256.004.259.001.26-.001.257-.004.254-.005.25-.008.247-.011.244-.012.241-.014.237-.016.233-.018.231-.021.226-.021.224-.024.22-.026.216-.027.212-.028.21-.031.205-.031.202-.034.198-.034.194-.036.191-.037.187-.039.183-.04.179-.04.175-.042.172-.043.168-.044.163-.045.16-.046.155-.046.152-.047.148-.048.143-.049.139-.049.136-.05.131-.05.126-.05.123-.051.118-.052.114-.051.11-.052.106-.052.101-.052.096-.052.092-.052.088-.053.083-.051.079-.052.074-.052.07-.051.065-.051.06-.051.056-.05.051-.05.023-.024.023-.025.021-.024.02-.024.019-.024.018-.024.017-.024.015-.023.014-.024.013-.023.012-.023.01-.023.01-.022.008-.022.006-.022.006-.022.004-.022.004-.021.001-.021.001-.021v-4.127l-.077.055-.08.053-.083.054-.085.053-.087.052-.09.052-.093.051-.095.05-.097.05-.1.049-.102.049-.105.048-.106.047-.109.047-.111.046-.114.045-.115.045-.118.044-.12.043-.122.042-.124.042-.126.041-.128.04-.13.04-.132.038-.134.038-.135.037-.138.037-.139.035-.142.035-.143.034-.144.033-.147.032-.148.031-.15.03-.151.03-.153.029-.154.027-.156.027-.158.026-.159.025-.161.024-.162.023-.163.022-.165.021-.166.02-.167.019-.169.018-.169.017-.171.016-.173.015-.173.014-.175.013-.175.012-.177.011-.178.01-.179.008-.179.008-.181.006-.182.005-.182.004-.184.003-.184.002h-.37l-.184-.002-.184-.003-.182-.004-.182-.005-.181-.006-.179-.008-.179-.008-.178-.01-.176-.011-.176-.012-.175-.013-.173-.014-.172-.015-.171-.016-.17-.017-.169-.018-.167-.019-.166-.02-.165-.021-.163-.022-.162-.023-.161-.024-.159-.025-.157-.026-.156-.027-.155-.027-.153-.029-.151-.03-.15-.03-.148-.031-.146-.032-.145-.033-.143-.034-.141-.035-.14-.035-.137-.037-.136-.037-.134-.038-.132-.038-.13-.04-.128-.04-.126-.041-.124-.042-.122-.042-.12-.044-.117-.043-.116-.045-.113-.045-.112-.046-.109-.047-.106-.047-.105-.048-.102-.049-.1-.049-.097-.05-.095-.05-.093-.052-.09-.051-.087-.052-.085-.053-.083-.054-.08-.054-.077-.054v4.127zm0-5.654v.011l.001.021.003.021.004.021.005.022.006.022.007.022.009.022.01.022.011.023.012.023.013.023.015.024.016.023.017.024.018.024.019.024.021.024.022.024.023.025.024.024.052.05.056.05.061.05.066.051.07.051.075.052.079.051.084.052.088.052.092.052.097.052.102.052.105.052.11.051.114.051.119.052.123.05.127.051.131.05.135.049.139.049.144.048.147.048.152.047.155.046.16.045.163.045.167.044.171.042.176.042.178.04.183.04.187.038.19.037.194.036.197.034.202.033.204.032.209.03.212.028.216.027.219.025.222.024.226.022.23.02.233.018.236.016.24.014.243.012.246.01.249.008.253.006.256.003.259.001.26-.001.257-.003.254-.006.25-.008.247-.01.244-.012.241-.015.237-.016.233-.018.231-.02.226-.022.224-.024.22-.025.216-.027.212-.029.21-.03.205-.032.202-.033.198-.035.194-.036.191-.037.187-.039.183-.039.179-.041.175-.042.172-.043.168-.044.163-.045.16-.045.155-.047.152-.047.148-.048.143-.048.139-.05.136-.049.131-.05.126-.051.123-.051.118-.051.114-.052.11-.052.106-.052.101-.052.096-.052.092-.052.088-.052.083-.052.079-.052.074-.051.07-.052.065-.051.06-.05.056-.051.051-.049.023-.025.023-.024.021-.025.02-.024.019-.024.018-.024.017-.024.015-.023.014-.023.013-.024.012-.022.01-.023.01-.023.008-.022.006-.022.006-.022.004-.021.004-.022.001-.021.001-.021v-4.139l-.077.054-.08.054-.083.054-.085.052-.087.053-.09.051-.093.051-.095.051-.097.05-.1.049-.102.049-.105.048-.106.047-.109.047-.111.046-.114.045-.115.044-.118.044-.12.044-.122.042-.124.042-.126.041-.128.04-.13.039-.132.039-.134.038-.135.037-.138.036-.139.036-.142.035-.143.033-.144.033-.147.033-.148.031-.15.03-.151.03-.153.028-.154.028-.156.027-.158.026-.159.025-.161.024-.162.023-.163.022-.165.021-.166.02-.167.019-.169.018-.169.017-.171.016-.173.015-.173.014-.175.013-.175.012-.177.011-.178.009-.179.009-.179.007-.181.007-.182.005-.182.004-.184.003-.184.002h-.37l-.184-.002-.184-.003-.182-.004-.182-.005-.181-.007-.179-.007-.179-.009-.178-.009-.176-.011-.176-.012-.175-.013-.173-.014-.172-.015-.171-.016-.17-.017-.169-.018-.167-.019-.166-.02-.165-.021-.163-.022-.162-.023-.161-.024-.159-.025-.157-.026-.156-.027-.155-.028-.153-.028-.151-.03-.15-.03-.148-.031-.146-.033-.145-.033-.143-.033-.141-.035-.14-.036-.137-.036-.136-.037-.134-.038-.132-.039-.13-.039-.128-.04-.126-.041-.124-.042-.122-.043-.12-.043-.117-.044-.116-.044-.113-.046-.112-.046-.109-.046-.106-.047-.105-.048-.102-.049-.1-.049-.097-.05-.095-.051-.093-.051-.09-.051-.087-.053-.085-.052-.083-.054-.08-.054-.077-.054v4.139zm0-5.666v.011l.001.02.003.022.004.021.005.022.006.021.007.022.009.023.01.022.011.023.012.023.013.023.015.023.016.024.017.024.018.023.019.024.021.025.022.024.023.024.024.025.052.05.056.05.061.05.066.051.07.051.075.052.079.051.084.052.088.052.092.052.097.052.102.052.105.051.11.052.114.051.119.051.123.051.127.05.131.05.135.05.139.049.144.048.147.048.152.047.155.046.16.045.163.045.167.043.171.043.176.042.178.04.183.04.187.038.19.037.194.036.197.034.202.033.204.032.209.03.212.028.216.027.219.025.222.024.226.021.23.02.233.018.236.017.24.014.243.012.246.01.249.008.253.006.256.003.259.001.26-.001.257-.003.254-.006.25-.008.247-.01.244-.013.241-.014.237-.016.233-.018.231-.02.226-.022.224-.024.22-.025.216-.027.212-.029.21-.03.205-.032.202-.033.198-.035.194-.036.191-.037.187-.039.183-.039.179-.041.175-.042.172-.043.168-.044.163-.045.16-.045.155-.047.152-.047.148-.048.143-.049.139-.049.136-.049.131-.051.126-.05.123-.051.118-.052.114-.051.11-.052.106-.052.101-.052.096-.052.092-.052.088-.052.083-.052.079-.052.074-.052.07-.051.065-.051.06-.051.056-.05.051-.049.023-.025.023-.025.021-.024.02-.024.019-.024.018-.024.017-.024.015-.023.014-.024.013-.023.012-.023.01-.022.01-.023.008-.022.006-.022.006-.022.004-.022.004-.021.001-.021.001-.021v-4.153l-.077.054-.08.054-.083.053-.085.053-.087.053-.09.051-.093.051-.095.051-.097.05-.1.049-.102.048-.105.048-.106.048-.109.046-.111.046-.114.046-.115.044-.118.044-.12.043-.122.043-.124.042-.126.041-.128.04-.13.039-.132.039-.134.038-.135.037-.138.036-.139.036-.142.034-.143.034-.144.033-.147.032-.148.032-.15.03-.151.03-.153.028-.154.028-.156.027-.158.026-.159.024-.161.024-.162.023-.163.023-.165.021-.166.02-.167.019-.169.018-.169.017-.171.016-.173.015-.173.014-.175.013-.175.012-.177.01-.178.01-.179.009-.179.007-.181.006-.182.006-.182.004-.184.003-.184.001-.185.001-.185-.001-.184-.001-.184-.003-.182-.004-.182-.006-.181-.006-.179-.007-.179-.009-.178-.01-.176-.01-.176-.012-.175-.013-.173-.014-.172-.015-.171-.016-.17-.017-.169-.018-.167-.019-.166-.02-.165-.021-.163-.023-.162-.023-.161-.024-.159-.024-.157-.026-.156-.027-.155-.028-.153-.028-.151-.03-.15-.03-.148-.032-.146-.032-.145-.033-.143-.034-.141-.034-.14-.036-.137-.036-.136-.037-.134-.038-.132-.039-.13-.039-.128-.041-.126-.041-.124-.041-.122-.043-.12-.043-.117-.044-.116-.044-.113-.046-.112-.046-.109-.046-.106-.048-.105-.048-.102-.048-.1-.05-.097-.049-.095-.051-.093-.051-.09-.052-.087-.052-.085-.053-.083-.053-.08-.054-.077-.054v4.153zm8.74-8.179l-.257.004-.254.005-.25.008-.247.011-.244.012-.241.014-.237.016-.233.018-.231.021-.226.022-.224.023-.22.026-.216.027-.212.028-.21.031-.205.032-.202.033-.198.034-.194.036-.191.038-.187.038-.183.04-.179.041-.175.042-.172.043-.168.043-.163.045-.16.046-.155.046-.152.048-.148.048-.143.048-.139.049-.136.05-.131.05-.126.051-.123.051-.118.051-.114.052-.11.052-.106.052-.101.052-.096.052-.092.052-.088.052-.083.052-.079.052-.074.051-.07.052-.065.051-.06.05-.056.05-.051.05-.023.025-.023.024-.021.024-.02.025-.019.024-.018.024-.017.023-.015.024-.014.023-.013.023-.012.023-.01.023-.01.022-.008.022-.006.023-.006.021-.004.022-.004.021-.001.021-.001.021.001.021.001.021.004.021.004.022.006.021.006.023.008.022.01.022.01.023.012.023.013.023.014.023.015.024.017.023.018.024.019.024.02.025.021.024.023.024.023.025.051.05.056.05.06.05.065.051.07.052.074.051.079.052.083.052.088.052.092.052.096.052.101.052.106.052.11.052.114.052.118.051.123.051.126.051.131.05.136.05.139.049.143.048.148.048.152.048.155.046.16.046.163.045.168.043.172.043.175.042.179.041.183.04.187.038.191.038.194.036.198.034.202.033.205.032.21.031.212.028.216.027.22.026.224.023.226.022.231.021.233.018.237.016.241.014.244.012.247.011.25.008.254.005.257.004.26.001.26-.001.257-.004.254-.005.25-.008.247-.011.244-.012.241-.014.237-.016.233-.018.231-.021.226-.022.224-.023.22-.026.216-.027.212-.028.21-.031.205-.032.202-.033.198-.034.194-.036.191-.038.187-.038.183-.04.179-.041.175-.042.172-.043.168-.043.163-.045.16-.046.155-.046.152-.048.148-.048.143-.048.139-.049.136-.05.131-.05.126-.051.123-.051.118-.051.114-.052.11-.052.106-.052.101-.052.096-.052.092-.052.088-.052.083-.052.079-.052.074-.051.07-.052.065-.051.06-.05.056-.05.051-.05.023-.025.023-.024.021-.024.02-.025.019-.024.018-.024.017-.023.015-.024.014-.023.013-.023.012-.023.01-.023.01-.022.008-.022.006-.023.006-.021.004-.022.004-.021.001-.021.001-.021-.001-.021-.001-.021-.004-.021-.004-.022-.006-.021-.006-.023-.008-.022-.01-.022-.01-.023-.012-.023-.013-.023-.014-.023-.015-.024-.017-.023-.018-.024-.019-.024-.02-.025-.021-.024-.023-.024-.023-.025-.051-.05-.056-.05-.06-.05-.065-.051-.07-.052-.074-.051-.079-.052-.083-.052-.088-.052-.092-.052-.096-.052-.101-.052-.106-.052-.11-.052-.114-.052-.118-.051-.123-.051-.126-.051-.131-.05-.136-.05-.139-.049-.143-.048-.148-.048-.152-.048-.155-.046-.16-.046-.163-.045-.168-.043-.172-.043-.175-.042-.179-.041-.183-.04-.187-.038-.191-.038-.194-.036-.198-.034-.202-.033-.205-.032-.21-.031-.212-.028-.216-.027-.22-.026-.224-.023-.226-.022-.231-.021-.233-.018-.237-.016-.241-.014-.244-.012-.247-.011-.25-.008-.254-.005-.257-.004-.26-.001-.26.001z" transform="scale(.5)"/></symbol></defs><defs><symbol height="24" width="24" id="clock"><path d="M12 2c5.514 0 10 4.486 10 10s-4.486 10-10 10-10-4.486-10-10 4.486-10 10-10zm0-2c-6.627 0-12 5.373-12 12s5.373 12 12 12 12-5.373 12-12-5.373-12-12-12zm5.848 12.459c.202.038.202.333.001.372-1.907.361-6.045 1.111-6.547 1.111-.719 0-1.301-.582-1.301-1.301 0-.512.77-5.447 1.125-7.445.034-.192.312-.181.343.014l.985 6.238 5.394 1.011z" transform="scale(.5)"/></symbol></defs><defs><marker orient="auto-start-reverse" markerHeight="12" markerWidth="12" markerUnits="userSpaceOnUse" refY="5" refX="7.9" id="arrowhead"><path d="M -1 0 L 10 5 L 0 10 z"/></marker></defs><defs><marker refY="4.5" refX="4" orient="auto" markerHeight="8" markerWidth="15" id="crosshead"><path style="stroke-dasharray: 0, 0;" d="M 1,2 L 6,7 M 6,2 L 1,7" stroke-width="1pt" stroke="#000000" fill="none"/></marker></defs><defs><marker orient="auto" markerHeight="28" markerWidth="20" refY="7" refX="15.5" id="filled-head"><path d="M 18,7 L9,13 L14,7 L9,1 Z"/></marker></defs><defs><marker orient="auto" markerHeight="40" markerWidth="60" refY="15" refX="15" id="sequencenumber"><circle r="6" cy="15" cx="15"/></marker></defs><g data-id="ibf42bbfe45" data-et="note"><rect class="note" height="88" width="178" stroke="#666" fill="#EDF2AE" y="122" x="357"/><text style="font-size: 16px; font-weight: 400;" dy="1em" class="noteText" alignment-baseline="middle" dominant-baseline="middle" text-anchor="middle" y="127" x="446"><tspan x="446">Initialization sequence </tspan></text><text style="font-size: 16px; font-weight: 400;" dy="1em" class="noteText" alignment-baseline="middle" dominant-baseline="middle" text-anchor="middle" y="144" x="446"><tspan x="446"> of uStreamer, </tspan></text><text style="font-size: 16px; font-weight: 400;" dy="1em" class="noteText" alignment-baseline="middle" dominant-baseline="middle" text-anchor="middle" y="161" x="446"><tspan x="446"> UPClientAndroid, </tspan></text><text style="font-size: 16px; font-weight: 400;" dy="1em" class="noteText" alignment-baseline="middle" dominant-baseline="middle" text-anchor="middle" y="178" x="446"><tspan x="446"> UTransportZenoh</tspan></text></g><g data-id="ia8d23cfbc5" data-et="note"><rect class="note" height="71" width="202" stroke="#666" fill="#EDF2AE" y="1205" x="105"/><text style="font-size: 16px; font-weight: 400;" dy="1em" class="noteText" alignment-baseline="middle" dominant-baseline="middle" text-anchor="middle" y="1210" x="206"><tspan x="206">Java uE communicating </tspan></text><text style="font-size: 16px; font-weight: 400;" dy="1em" class="noteText" alignment-baseline="middle" dominant-baseline="middle" text-anchor="middle" y="1227" x="206"><tspan x="206"> from within Android VM to </tspan></text><text style="font-size: 16px; font-weight: 400;" dy="1em" class="noteText" alignment-baseline="middle" dominant-baseline="middle" text-anchor="middle" y="1244" x="206"><tspan x="206"> C++ uE on host device</tspan></text></g><text style="font-size: 16px; font-weight: 400;" dy="1em" class="messageText" alignment-baseline="middle" dominant-baseline="middle" text-anchor="middle" y="225" x="333">spawn thread</text><path style="fill: none;" marker-end="url(#arrowhead)" stroke="none" stroke-width="2" data-to="UStreamerService" data-from="UStreamerService" data-id="icd7245af62" data-et="message" class="messageLine0" d="M 333,254 C 393,244 393,284 333,274"/><text style="font-size: 16px; font-weight: 400;" dy="1em" class="messageText" alignment-baseline="middle" dominant-baseline="middle" text-anchor="middle" y="299" x="660">initializeStreamer(JNIEnv, UPClient instance, UUri class, UStatus class, </text><text style="font-size: 16px; font-weight: 400;" dy="1em" class="messageText" alignment-baseline="middle" dominant-baseline="middle" text-anchor="middle" y="316" x="660"> UListenerNativeBridge class, NativeBridge class)</text><line style="fill: none;" marker-end="url(#arrowhead)" stroke="none" stroke-width="2" data-to="NativeBridgeJava" data-from="UStreamerService" data-id="idee89185a3" data-et="message" class="messageLine0" y2="345" x2="986" y1="345" x1="333"/><text style="font-size: 16px; font-weight: 400;" dy="1em" class="messageText" alignment-baseline="middle" dominant-baseline="middle" text-anchor="middle" y="360" x="1287">initializeStreamer(JNIEnv, UPClient instance, UUri class, UStatus class, </text><text style="font-size: 16px; font-weight: 400;" dy="1em" class="messageText" alignment-baseline="middle" dominant-baseline="middle" text-anchor="middle" y="377" x="1287"> UListenerNativeBridge class, NativeBridge class)</text><line style="fill: none;" marker-end="url(#arrowhead)" stroke="none" stroke-width="2" data-to="NativeBridgeRust" data-from="NativeBridgeJava" data-id="ic0be221b4a" data-et="message" class="messageLine0" y2="406" x2="1583" y1="406" x1="991"/><text style="font-size: 16px; font-weight: 400;" dy="1em" class="messageText" alignment-baseline="middle" dominant-baseline="middle" text-anchor="middle" y="421" x="1951">new()</text><line style="fill: none;" marker-end="url(#arrowhead)" stroke="none" stroke-width="2" data-to="uStreamer" data-from="NativeBridgeRust" data-id="i4f472be68f" data-et="message" class="messageLine0" y2="450" x2="2313.5" y1="450" x1="1588"/><text style="font-size: 16px; font-weight: 400;" dy="1em" class="messageText" alignment-baseline="middle" dominant-baseline="middle" text-anchor="middle" y="465" x="1588">make GlobalRefs of Java objects </text><text style="font-size: 16px; font-weight: 400;" dy="1em" class="messageText" alignment-baseline="middle" dominant-baseline="middle" text-anchor="middle" y="482" x="1588"> and classes so that we can store </text><text style="font-size: 16px; font-weight: 400;" dy="1em" class="messageText" alignment-baseline="middle" dominant-baseline="middle" text-anchor="middle" y="499" x="1588"> references to them in UPClientAndroid</text><path style="fill: none;" marker-end="url(#arrowhead)" stroke="none" stroke-width="2" data-to="NativeBridgeRust" data-from="NativeBridgeRust" data-id="i2da3d3d523" data-et="message" class="messageLine0" d="M 1588,528 C 1648,518 1648,558 1588,548"/><text style="font-size: 16px; font-weight: 400;" dy="1em" class="messageText" alignment-baseline="middle" dominant-baseline="middle" text-anchor="middle" y="573" x="1788">new(GlobalRefs of Java objects </text><text style="font-size: 16px; font-weight: 400;" dy="1em" class="messageText" alignment-baseline="middle" dominant-baseline="middle" text-anchor="middle" y="590" x="1788"> and classes)</text><line style="fill: none;" marker-end="url(#arrowhead)" stroke="none" stroke-width="2" data-to="UPClientAndroid" data-from="NativeBridgeRust" data-id="i81733675f8" data-et="message" class="messageLine0" y2="619" x2="1987" y1="619" x1="1588"/><text style="font-size: 16px; font-weight: 400;" dy="1em" class="messageText" alignment-baseline="middle" dominant-baseline="middle" text-anchor="middle" y="634" x="2052">new()</text><line style="fill: none;" marker-end="url(#arrowhead)" stroke="none" stroke-width="2" data-to="UPTransportZenoh" data-from="NativeBridgeRust" data-id="ib2f467fd5e" data-et="message" class="messageLine0" y2="663" x2="2516" y1="663" x1="1588"/><text style="font-size: 16px; font-weight: 400;" dy="1em" class="messageText" alignment-baseline="middle" dominant-baseline="middle" text-anchor="middle" y="678" x="1951">add_forwarding_rule(UPTransportZenoh, UPClientAndroid)</text><line style="fill: none;" marker-end="url(#arrowhead)" stroke="none" stroke-width="2" data-to="uStreamer" data-from="NativeBridgeRust" data-id="i86b508c22e" data-et="message" class="messageLine0" y2="709" x2="2313.5" y1="709" x1="1588"/><text style="font-size: 16px; font-weight: 400;" dy="1em" class="messageText" alignment-baseline="middle" dominant-baseline="middle" text-anchor="middle" y="724" x="1951">add_forwarding_rule(UPClientAndroid, UPTransportZenoh)</text><line style="fill: none;" marker-end="url(#arrowhead)" stroke="none" stroke-width="2" data-to="uStreamer" data-from="NativeBridgeRust" data-id="iba334b3fda" data-et="message" class="messageLine0" y2="755" x2="2313.5" y1="755" x1="1588"/><text style="font-size: 16px; font-weight: 400;" dy="1em" class="messageText" alignment-baseline="middle" dominant-baseline="middle" text-anchor="middle" y="770" x="1588">create Rust dummy_uuri and dummy_listener</text><path style="fill: none;" marker-end="url(#arrowhead)" stroke="none" stroke-width="2" data-to="NativeBridgeRust" data-from="NativeBridgeRust" data-id="i3e01e3a2a5" data-et="message" class="messageLine0" d="M 1588,801 C 1648,791 1648,831 1588,821"/><text style="font-size: 16px; font-weight: 400;" dy="1em" class="messageText" alignment-baseline="middle" dominant-baseline="middle" text-anchor="middle" y="846" x="1788">register_listener(dummy_uuri, dummy_listener)</text><line style="fill: none;" marker-end="url(#arrowhead)" stroke="none" stroke-width="2" data-to="UPClientAndroid" data-from="NativeBridgeRust" data-id="i2175a0dfa0" data-et="message" class="messageLine0" y2="877" x2="1987" y1="877" x1="1588"/><text style="font-size: 16px; font-weight: 400;" dy="1em" class="messageText" alignment-baseline="middle" dominant-baseline="middle" text-anchor="middle" y="892" x="1992">hash = store_listener(UUri, UListener)</text><path style="fill: none;" marker-end="url(#arrowhead)" stroke="none" stroke-width="2" data-to="UPClientAndroid" data-from="UPClientAndroid" data-id="i4f71726066" data-et="message" class="messageLine0" d="M 1992,923 C 2052,913 2052,953 1992,943"/><text style="font-size: 16px; font-weight: 400;" dy="1em" class="messageText" alignment-baseline="middle" dominant-baseline="middle" text-anchor="middle" y="968" x="1385">Java UListener interface object = UListenerNativeBridge(hash)</text><line style="fill: none;" marker-end="url(#arrowhead)" stroke="none" stroke-width="2" data-to="UListenerNativeBridge" data-from="UPClientAndroid" data-id="ib208d4c6a5" data-et="message" class="messageLine0" y2="997" x2="779" y1="997" x1="1990"/><text style="font-size: 16px; font-weight: 400;" dy="1em" class="messageText" alignment-baseline="middle" dominant-baseline="middle" text-anchor="middle" y="1012" x="1992">byte_array = serialize Rust UUri Protobuf object to byte array</text><path style="fill: none;" marker-end="url(#arrowhead)" stroke="none" stroke-width="2" data-to="UPClientAndroid" data-from="UPClientAndroid" data-id="i3fe5eafd72" data-et="message" class="messageLine0" d="M 1992,1043 C 2052,1033 2052,1073 1992,1063"/><text style="font-size: 16px; font-weight: 400;" dy="1em" class="messageText" alignment-baseline="middle" dominant-baseline="middle" text-anchor="middle" y="1088" x="1492">java_uuri = deserializeToUUri(byte_array)</text><line style="fill: none;" marker-end="url(#arrowhead)" stroke="none" stroke-width="2" data-to="NativeBridgeJava" data-from="UPClientAndroid" data-id="i49d30be189" data-et="message" class="messageLine0" y2="1119" x2="994" y1="1119" x1="1990"/><text style="font-size: 16px; font-weight: 400;" dy="1em" class="messageText" alignment-baseline="middle" dominant-baseline="middle" text-anchor="middle" y="1134" x="1277">registerListener(java_uuri, Java UListener interface object)</text><line style="fill: none;" marker-end="url(#arrowhead)" stroke="none" stroke-width="2" data-to="UPClient" data-from="UPClientAndroid" data-id="id9b5681e0e" data-et="message" class="messageLine0" y2="1165" x2="564" y1="1165" x1="1990"/><text style="font-size: 16px; font-weight: 400;" dy="1em" class="messageText" alignment-baseline="middle" dominant-baseline="middle" text-anchor="middle" y="1291" x="319">sends message that matches dummy_uuri</text><line style="fill: none;" marker-end="url(#arrowhead)" stroke="none" stroke-width="2" data-to="UPClient" data-from="Java uE" data-id="id88ac06168" data-et="message" class="messageLine0" y2="1322" x2="556" y1="1322" x1="81"/><text style="font-size: 16px; font-weight: 400;" dy="1em" class="messageText" alignment-baseline="middle" dominant-baseline="middle" text-anchor="middle" y="1337" x="561">retrieves instance of UListenerNativeBridge </text><text style="font-size: 16px; font-weight: 400;" dy="1em" class="messageText" alignment-baseline="middle" dominant-baseline="middle" text-anchor="middle" y="1354" x="561"> registered to matching UUri</text><path style="fill: none;" marker-end="url(#arrowhead)" stroke="none" stroke-width="2" data-to="UPClient" data-from="UPClient" data-id="i3c26808fa7" data-et="message" class="messageLine0" d="M 561,1383 C 621,1373 621,1413 561,1403"/><text style="font-size: 16px; font-weight: 400;" dy="1em" class="messageText" alignment-baseline="middle" dominant-baseline="middle" text-anchor="middle" y="1428" x="666">onReceive()</text><line style="fill: none;" marker-end="url(#arrowhead)" stroke="none" stroke-width="2" data-to="UListenerNativeBridge" data-from="UPClient" data-id="ia3c6a2e86b" data-et="message" class="messageLine0" y2="1457" x2="771" y1="1457" x1="561"/><text style="font-size: 16px; font-weight: 400;" dy="1em" class="messageText" alignment-baseline="middle" dominant-baseline="middle" text-anchor="middle" y="1472" x="1382">onReceiveNative(listener_id, message_bytes)</text><line style="fill: none;" marker-end="url(#arrowhead)" stroke="none" stroke-width="2" data-to="UPClientAndroid" data-from="UListenerNativeBridge" data-id="i438fd4f404" data-et="message" class="messageLine0" y2="1503" x2="1987" y1="1503" x1="776"/><text style="font-size: 16px; font-weight: 400;" dy="1em" class="messageText" alignment-baseline="middle" dominant-baseline="middle" text-anchor="middle" y="1518" x="1992">Convert message_bytes to a Rust UMessage Protobuf object</text><path style="fill: none;" marker-end="url(#arrowhead)" stroke="none" stroke-width="2" data-to="UPClientAndroid" data-from="UPClientAndroid" data-id="i7dae08c933" data-et="message" class="messageLine0" d="M 1992,1549 C 2052,1539 2052,1579 1992,1569"/><text style="font-size: 16px; font-weight: 400;" dy="1em" class="messageText" alignment-baseline="middle" dominant-baseline="middle" text-anchor="middle" y="1594" x="1992">Lookup Rust UListener stored under listener_id</text><path style="fill: none;" marker-end="url(#arrowhead)" stroke="none" stroke-width="2" data-to="UPClientAndroid" data-from="UPClientAndroid" data-id="i648cbdb575" data-et="message" class="messageLine0" d="M 1992,1625 C 2052,1615 2052,1655 1992,1645"/><text style="font-size: 16px; font-weight: 400;" dy="1em" class="messageText" alignment-baseline="middle" dominant-baseline="middle" text-anchor="middle" y="1670" x="1992">Call retreived Rust UListener's on_receive(Rust UMessage protobuf object)</text><path style="fill: none;" marker-end="url(#arrowhead)" stroke="none" stroke-width="2" data-to="UPClientAndroid" data-from="UPClientAndroid" data-id="i16ec7e00c2" data-et="message" class="messageLine0" d="M 1992,1701 C 2052,1691 2052,1731 1992,1721"/><text style="font-size: 16px; font-weight: 400;" dy="1em" class="messageText" alignment-baseline="middle" dominant-baseline="middle" text-anchor="middle" y="1746" x="2153">UMessage to forward</text><line style="fill: none;" marker-end="url(#arrowhead)" stroke="none" stroke-width="2" data-to="uStreamer" data-from="UPClientAndroid" data-id="i273d3ed65d" data-et="message" class="messageLine0" y2="1775" x2="2313.5" y1="1775" x1="1992"/><text style="font-size: 16px; font-weight: 400;" dy="1em" class="messageText" alignment-baseline="middle" dominant-baseline="middle" text-anchor="middle" y="1790" x="2417">send(UMessage)</text><line style="fill: none;" marker-end="url(#arrowhead)" stroke="none" stroke-width="2" data-to="UPTransportZenoh" data-from="uStreamer" data-id="i8e18d6e4d1" data-et="message" class="messageLine0" y2="1819" x2="2516" y1="1819" x1="2318.5"/><text style="font-size: 16px; font-weight: 400;" dy="1em" class="messageText" alignment-baseline="middle" dominant-baseline="middle" text-anchor="middle" y="1834" x="2657">Communication via Zenoh</text><line style="fill: none;" marker-end="url(#arrowhead)" stroke="none" stroke-width="2" data-to="UTransport" data-from="UPTransportZenoh" data-id="i28aba01d4a" data-et="message" class="messageLine0" y2="1863" x2="2792" y1="1863" x1="2521"/><text style="font-size: 16px; font-weight: 400;" dy="1em" class="messageText" alignment-baseline="middle" dominant-baseline="middle" text-anchor="middle" y="1878" x="2915">Ping registered callback</text><line style="fill: none;" marker-end="url(#arrowhead)" stroke="none" stroke-width="2" data-to="uECpp" data-from="UTransport" data-id="i206a6ff9f8" data-et="message" class="messageLine0" y2="1907" x2="3032" y1="1907" x1="2797"/><style>svg span {
    font-family: 'Arial' !important;
}

svg {
    font-family: 'Arial' !important;
    -webkit-user-select: none;
    -moz-user-select: none;
    -ms-user-select: none;
    user-select: none;
}
</style></svg>